<?xml version="1.0" encoding="UTF-8"?>
<svg width="78px" height="78px" viewBox="0 0 78 78" version="1.1" xmlns="http://www.w3.org/2000/svg" xmlns:xlink="http://www.w3.org/1999/xlink">
    <!-- Generator: Sketch 49.2 (51160) - http://www.bohemiancoding.com/sketch -->
    <title>0047</title>
    <desc>Created with Sketch.</desc>
    <defs></defs>
    <g id="Page-1" stroke="none" stroke-width="1" fill="none" fill-rule="evenodd">
        <g id="猩派客官网渠道合作" transform="translate(-101.000000, -2868.000000)" fill="#FFFFFF" fill-rule="nonzero">
            <g id="向左" transform="translate(101.000000, 2868.000000)">
                <g id="Group-7">
                    <path d="M46.0909091,19.5 C46.0909091,18.4363636 45.3818182,17.7272727 44.3181818,17.7272727 C43.7863636,17.7272727 43.4318182,17.9045454 43.0772728,18.2590909 L25.35,37.7590909 C24.9954546,38.1136363 24.8181818,38.4681818 24.8181818,39 C24.8181818,39.5318182 24.9954545,39.8863637 25.35,40.2409091 L43.0772727,59.7409091 C43.4318182,60.0954546 43.7863636,60.2727273 44.3181817,60.2727273 C45.3818181,60.2727273 46.090909,59.5636364 46.090909,58.5 C46.090909,57.9681819 45.9136363,57.6136364 45.5590908,57.259091 L29.0727272,39 L45.7363636,20.7409091 C45.9136364,20.3863636 46.0909091,20.0318181 46.0909091,19.5 Z M39,0 C17.3727272,0 0,17.3727272 0,39 C0,60.6272728 17.3727273,78 39,78 C60.6272727,78 78,60.6272727 78,39 C78,17.3727273 60.6272728,0 39,0 Z M39,76.3336364 C18.4665,76.3336364 1.66636362,59.5335 1.66636362,39 C1.66636362,18.4665 18.4665,1.66636362 39,1.66636362 C59.5335,1.66636362 76.3336364,18.4665 76.3336364,39 C76.3336364,59.5335 59.5335,76.3336364 39,76.3336364 Z" id="Shape"></path>
                </g>
            </g>
        </g>
    </g>
</svg>