<?xml version="1.0" encoding="UTF-8"?>
<svg width="78px" height="78px" viewBox="0 0 78 78" version="1.1" xmlns="http://www.w3.org/2000/svg" xmlns:xlink="http://www.w3.org/1999/xlink">
    <!-- Generator: Sketch 49.2 (51160) - http://www.bohemiancoding.com/sketch -->
    <title>0049</title>
    <desc>Created with Sketch.</desc>
    <defs></defs>
    <g id="Page-1" stroke="none" stroke-width="1" fill="none" fill-rule="evenodd">
        <g id="猩派客官网渠道合作" transform="translate(-370.000000, -2868.000000)">
            <g id="放大" transform="translate(370.000000, 2868.000000)">
                <g id="Group-9">
                    <path d="M39,8.82797692e-15 C17.4608662,8.82797692e-15 0,17.4608662 0,39.0002071 C0,60.5391338 17.4608662,78 39,78 C60.5391338,78 78,60.5391338 78,39.0002071 C78,17.4608662 60.5391338,0 39,8.82797692e-15 Z" id="Shape" fill="#FF983E" fill-rule="nonzero"></path>
                    <path d="M57.0498136,37.5499534 L41.4498758,37.5499534 L41.4498758,21.9497878 C41.4498758,20.8730146 40.5768681,20 39.4998965,20 C38.4229248,20 37.5501242,20.8730146 37.5501242,21.9497878 L37.5501242,37.5499534 L21.9499793,37.5499534 C20.8732147,37.5499534 20,38.4227609 20,39.4999482 C20,40.5767214 20.8732147,41.449736 21.9499793,41.449736 L37.5501242,41.449736 L37.5501242,57.0497981 C37.5501242,58.1269854 38.4229248,59 39.4998965,59 C40.5768681,59 41.4498758,58.1269854 41.4498758,57.0497981 L41.4498758,41.4498395 L57.0498136,41.4498395 C58.1269924,41.4498395 59,40.576825 59,39.5000518 C59,38.4227609 58.1269924,37.5499534 57.0498136,37.5499534 Z" id="Path" fill="#FFFFFF"></path>
                </g>
            </g>
        </g>
    </g>
</svg>